<?xml version="1.0" encoding="UTF-8"?>
<svg id="logo" data-name="logo" xmlns="http://www.w3.org/2000/svg" viewBox="0 0 997.01 997.01">
  <defs>
    <style>
      .cls-1 { fill: none; }
      .cls-2 { fill: #c94434; }
    </style>
  </defs>
  <g>
    <g>
      <g>
        <path d="M318.22,605.48c-70.09,40.65-159.85,16.78-200.5-53.31-22.8-39.31-25.3-84.81-10.73-124.36-20.54,42.39-20.35,93.89,5.06,137.7,40.65,70.09,130.41,93.95,200.5,53.31,30.78-17.85,52.64-45.17,64.04-76.14-12.32,25.42-32.1,47.56-58.37,62.79Z"/>
        <path d="M464.69,423.89c-11.82-13.31-25.97-19.76-38.78-19.2.5.4,1,.8,1.49,1.2,9.28,1.45,18.93,6.27,27.68,14.58,22.69,21.54,30.76,58.22,18.03,81.94-9.87,18.38-29.33,23.57-48.16,14.95,19.14,12.27,40.45,9.65,52.26-8.49,14.7-22.58,9.09-60.63-12.53-84.99Z"/>
        <path class="cls-2" d="M385.89,439.28c-.38-.59-.79-1.21-1.1-1.68,0,.17.01.33.01.5,0,7.27-.99,14.32-2.82,21.04,6.45,28.09,4.33,57.15-5.39,83.55,9.36-19.32,14.41-40.54,14.73-62.05-5.77-13.5-7.8-28.28-5.44-41.36Z"/>
        <path class="cls-2" d="M165.36,365.02c40.54-23.51,87.66-25.44,128.05-9.32,1.83-.11,3.68-.19,5.54-.19,13.06,0,25.43,2.82,36.51,7.84-45.84-36.12-110.88-42.73-164.44-11.67-30.78,17.85-52.64,45.17-64.04,76.14,12.32-25.42,32.1-47.56,58.37-62.79Z"/>
        <path class="cls-2" d="M381.98,459.14c-9.67,35.42-43.17,61.55-83.02,61.55-47.41,0-85.84-36.97-85.84-82.59s35.48-79.65,80.3-82.4c-40.39-16.12-87.52-14.19-128.05,9.32-26.27,15.24-46.05,37.38-58.37,62.79-14.56,39.55-12.06,85.05,10.73,124.36,40.65,70.09,130.41,93.95,200.5,53.31,26.27-15.24,46.05-37.38,58.37-62.79,9.72-26.4,11.84-55.46,5.39-83.55Z"/>
        <path class="cls-2" d="M411.45,505.67c-14.74-16.61-22.03-39.58-20.52-59.68-2.55-3-3.93-5.01-3.93-5.01-.04-.08-.44-.69-.92-1.43,3.75,13.54,5.46,27.37,5.26,41.08,4.09,9.57,10.04,18.5,17.66,25.73,5.11,4.85,10.52,8.5,15.98,11-4.69-3.01-9.26-6.9-13.52-11.7Z"/>
        <path class="cls-2" d="M473.12,502.41c12.73-23.72,4.66-60.41-18.03-81.94-8.75-8.31-18.4-13.13-27.68-14.58,5.13,4.18,9.5,8.34,9.5,8.34,21.64,20.29,19.68,40.4,19.68,40.4-2.04,23.46-27.88,16.5-27.88,16.5-17.74-3.98-31.41-17.65-37.78-25.14-1.51,20.1,5.78,43.07,20.52,59.68,4.26,4.8,8.82,8.69,13.52,11.7,18.82,8.61,38.29,3.43,48.16-14.95Z"/>
        <path class="cls-2" d="M386.07,439.55c-.06-.09-.12-.18-.18-.27-2.36,13.08-.33,27.86,5.44,41.36.2-13.71-1.51-27.54-5.26-41.08Z"/>
        <path class="cls-2" d="M383.1,421.69c.85-1.3,1.85-2.63,2.96-3.97l38.02-221.22-86.93-3.84,41.64,215.1c1.84,4.47,3.3,9.12,4.31,13.93Z"/>
        <path class="cls-2" d="M383.1,421.69c-1.01-4.81-2.47-9.46-4.31-13.93l3.09,15.95c.36-.66.77-1.34,1.22-2.02Z"/>
        <path class="cls-2" d="M384.21,428.5l1.85-10.79c-1.11,1.34-2.11,2.67-2.96,3.97.47,2.24.83,4.52,1.11,6.82Z"/>
        <path class="cls-2" d="M383.15,430.24c.17.49.34.97.51,1.46l.55-3.2c-.28-2.3-.64-4.58-1.11-6.82-.45.69-.86,1.36-1.22,2.02l1.26,6.53Z"/>
        <polygon class="cls-2" points="383.55 432.32 383.55 432.32 383.55 432.32 383.55 432.32"/>
        <path class="cls-2" d="M383.55,432.32l.11-.62c-.16-.49-.34-.97-.51-1.46l.4,2.08Z"/>
        <path d="M337.14,192.65h.02s0,0,0,0l-23.5,4.6,59.04,198.56c2.35,3.79,4.39,7.78,6.1,11.94l-41.65-215.09Z"/>
        <path d="M381.88,423.71l-3.09-15.96c-1.71-4.15-3.74-8.15-6.1-11.94l8.63,29.01c.17-.37.36-.73.56-1.11Z"/>
        <path d="M383.15,430.24l-1.26-6.53c-.2.38-.39.74-.56,1.11l.64,2.16c.41,1.08.8,2.17,1.18,3.26Z"/>
        <path d="M381.96,426.98l1.59,5.34-.4-2.08c-.38-1.09-.78-2.17-1.18-3.26Z"/>
        <polygon points="378.79 407.75 378.8 407.76 337.16 192.65 337.14 192.65 378.79 407.75"/>
      </g>
      <g>
        <g>
          <path class="cls-1" d="M588.78,347.98c-13.49-2.82-27.59,6.85-26.18,23.96.81,11.88,10.27,20.34,23.16,20.34,9.67,0,20.34-8.26,20.34-22.35,0-8.26-3.83-19.13-17.32-21.95Z"/>
          <path d="M639.33,291.39l-25.78-.4c.2,22.15,2.42,45.92,2.42,45.92-4.43-6.44-12.89-15.1-31.82-16.51-24.57-1.61-47.93,15.51-48.74,45.92-.8,32.02,19.33,50.35,39.27,51.96,21.95,1.81,35.44-6.65,39.87-16.11l-1.01,18.93,25.78.4c0-22.35-.6-45.51,0-130.1ZM585.76,392.28c-12.89,0-22.35-8.46-23.16-20.34-1.41-17.12,12.69-26.78,26.18-23.96,13.49,2.82,17.32,13.69,17.32,21.95,0,14.1-10.67,22.35-20.34,22.35Z"/>
        </g>
        <g>
          <path d="M576.81,573.37c5.64.16,12.24,4.99,13.53,11.76l15.63-7.41c-2.74-14.02-16.92-23.36-33.83-21.75-17.72,1.77-27.23,15.14-23.52,28.68,2.58,9.5,8.86,13.53,27.55,18.53,6.28,1.61,7.73,5.8,7.57,8.7-.32,3.87-4.19,7.73-9.5,7.73-8.22,0-13.85-5.64-17.08-14.82l-14.66,9.18c3.38,14.02,18.04,27.39,39.15,24,20.14-3.38,25.46-19.17,22.39-31.09-4.03-16.59-24.81-16.59-32.87-21.43-3.06-1.93-3.54-4.35-3.38-6.28.48-3.71,4.35-6.12,9.02-5.8Z"/>
          <path d="M658.17,613.16c-7.73-1.29-7.09-6.28-6.12-35.93,6.28.32,20.3-.97,20.3-.97l.16-16.59-18.53-.16.81-19.49-21.75-1.61-.32,20.78-19.17-.16.64,16.92c7.25.81,15.3,2.58,15.3,2.58-.64,22.07-2.9,52.68,23.68,56.22,14.34,1.93,24.81-6.12,31.9-18.37l-12.08-15.63c-1.61,5.32-6.93,13.69-14.82,12.4Z"/>
          <path d="M744.04,560.48c3.87,43.18-9.34,52.36-16.27,52.04-20.14.97-14.34-29.8-12.73-52.52l-23.04-.48c-6.28,61.38,10.63,76.04,30.61,75.88,16.59,0,25.45-13.69,25.45-13.69,0,1.61-1.77,13.53-1.77,13.53l20.78.16c.32-4.03-.32-75.4-.32-75.4l-22.71.48Z"/>
          <path d="M834.1,533.1c.16,17.72,1.93,36.73,1.93,36.73-3.54-5.16-10.31-12.08-25.45-13.21-19.65-1.29-38.34,12.41-38.99,36.73-.64,25.62,15.47,40.28,31.42,41.56,17.56,1.45,28.35-5.32,31.9-12.89l-.81,15.14,20.62.32c0-17.88-.48-36.41,0-104.07l-20.62-.32ZM811.86,614.13c-10.31,0-17.88-6.77-18.53-16.27-1.13-13.69,10.15-21.43,20.94-19.17,10.79,2.25,13.85,10.96,13.85,17.56,0,11.28-8.54,17.88-16.27,17.88Z"/>
          <path d="M873.73,559.68c-.64,12.08-2.09,74.11-2.09,74.11l24.17.48c0-4.19-1.29-74.27-1.29-74.27l-20.78-.32Z"/>
          <path d="M893.38,547.59l-.81-19.17-21.43,1.77c.81,8.54,3.38,19.82,3.38,19.82,7.41-.48,18.85-2.42,18.85-2.42Z"/>
          <path d="M945.26,556.62c-28.68.16-41.4,21.43-40.28,39.79.64,25.62,16.11,41.08,42.05,40.28,21.27-.64,35.44-20.14,34.64-41.73-.48-12.89-7.25-38.5-36.41-38.34ZM957.66,596.89c-.48,10.47-6.77,17.72-15.14,17.56-9.99-.32-15.79-7.89-15.47-20.46.32-15.3,13.05-17.72,18.04-16.75,8.06,1.61,13.05,7.57,12.57,19.65Z"/>
          <path class="cls-2" d="M604.2,494.59c11.44,20.46,24.49,31.58,24.49,31.58,14.5-17.72,40.6-70.24,40.6-70.24l-20.94-9.99c-9.18,20.78-22.55,47.69-22.55,47.69-6.77-15.3-20.46-38.66-20.46-38.66-10.79,19.98-20.14,41.89-20.14,41.89l-24.33-52.36-18.85,8.7c.64,2.58,35.6,72.66,35.6,72.66,14.34-13.37,26.58-31.25,26.58-31.25Z"/>
          <path class="cls-2" d="M669.93,521.82l24.17.48c0-4.19-1.29-74.27-1.29-74.27l-20.78-.32c-.64,12.08-2.09,74.11-2.09,74.11Z"/>
          <path class="cls-2" d="M691.68,435.63l-.81-19.17-21.43,1.77c.81,8.54,3.38,19.82,3.38,19.82,7.41-.48,18.85-2.42,18.85-2.42Z"/>
          <path class="cls-2" d="M763.7,488.79c-1.61,5.32-6.93,13.69-14.82,12.4-7.73-1.29-7.09-6.28-6.12-35.93,6.28.32,20.3-.97,20.3-.97l.16-16.59-18.53-.16.81-19.49-21.75-1.61-.32,20.78-19.17-.16.64,16.92c7.25.81,15.3,2.58,15.3,2.58-.64,22.07-2.9,52.68,23.68,56.22,14.34,1.93,24.81-6.12,31.9-18.37l-12.08-15.63Z"/>
          <path class="cls-2" d="M835.39,446.26c-11.28-1.45-24.33,5.96-28.68,16.92l-.16-40.92-21.75-.16c.48,3.54-.32,99.72-.32,99.72h23.36s-.16-25.78.16-34.64c.16-7.25,5.32-16.43,14.34-17.4,6.93-.81,14.02,3.71,14.5,12.89.81,10.63-.32,39.31-.32,39.31l26.74.32c.81-25.94-.48-49.46-3.38-57.67-4.83-13.69-14.66-16.92-24.49-18.37Z"/>
        </g>
      </g>
    </g>
  </g>
</svg>
